<svg width="74" height="61" viewBox="0 0 74 61" fill="none" xmlns="http://www.w3.org/2000/svg">
<path d="M17.2002 16L23.4002 22.3L38.8002 37.8L46.4002 45.5" stroke="white" stroke-width="1.0231" stroke-miterlimit="10"/>
<path d="M21.1 21.8008L37.9 38.6008C37.7 40.4008 36.1 41.8008 34.2 41.8008H18.7C16.7 41.8008 15 40.1008 15 38.1008V25.5008C15 23.5008 16.7 21.8008 18.7 21.8008H21.1Z" fill="white"/>
<path d="M38 25.5008V35.2008L24.5 21.8008H34.2C36.3 21.8008 38 23.4008 38 25.5008Z" fill="white"/>
<path d="M46.1998 23.8016C45.9998 23.8016 45.7998 23.9016 45.5998 24.1016L39.7998 27.5016V36.1016L45.5998 39.5016C46.6998 40.1016 47.9998 39.8016 48.6998 38.7016C48.8998 38.4016 48.9998 38.0016 48.9998 37.6016V26.0016C48.9998 24.6016 47.6998 23.5016 46.1998 23.8016Z" fill="white"/>
</svg>
