<svg width="65" height="61" viewBox="0 0 65 61" fill="none" xmlns="http://www.w3.org/2000/svg">
<path d="M17 17.002L22.6842 22.7541L36.8947 36.9585L44 44.002" stroke="white" stroke-width="0.7977" stroke-miterlimit="10"/>
<path d="M31.5773 40.4308V43.1254H35.092C35.6778 43.1254 36.0292 43.594 36.0292 44.0626C36.0292 44.6484 35.5606 44.9999 35.092 44.9999H26.0711C25.4853 44.9999 25.1338 44.5312 25.1338 44.0626C25.1338 43.594 25.6024 43.1254 26.0711 43.1254H29.5857V40.4308C25.1338 39.9622 21.7363 36.0961 21.7363 31.4099C21.7363 30.8241 22.2049 30.4727 22.6736 30.4727C23.2593 30.4727 23.6108 30.9413 23.6108 31.4099C23.6108 35.276 26.6568 38.4392 30.4058 38.4392C32.046 38.4392 33.569 37.8534 34.8577 36.799L36.2635 38.2049C35.092 39.4936 33.4518 40.3137 31.5773 40.4308Z" fill="white"/>
<path d="M39.427 31.5276C39.427 33.1677 38.9584 34.8079 38.1383 36.0966L36.7324 34.6908C37.201 33.7535 37.4354 32.6991 37.4354 31.5276C37.4354 30.9418 37.7868 30.5903 38.3726 30.5903C38.9584 30.4732 39.427 30.9418 39.427 31.5276Z" fill="white"/>
<path d="M25.251 27.0742L34.0376 35.7437C33.1003 36.4466 31.9288 36.9152 30.7573 36.9152C27.8284 36.9152 25.3681 34.455 25.3681 31.4089V27.0742H25.251Z" fill="white"/>
<path d="M36.0292 22.5063V31.5272C36.0292 32.2301 35.9121 32.9331 35.6778 33.5188L25.251 23.0921V22.5063C25.251 19.4603 27.7112 17 30.6401 17C33.569 17 36.0292 19.4603 36.0292 22.5063Z" fill="white"/>
</svg>
