<svg width="61" height="61" viewBox="0 0 61 61" fill="none" xmlns="http://www.w3.org/2000/svg">
<path fill-rule="evenodd" clip-rule="evenodd" d="M44.4286 17H16.5714C15.1513 17 14 18.1512 14 19.5714V35.4286C14 36.8487 15.1513 38 16.5714 38H44.4286C45.8487 38 47 36.8487 47 35.4286V19.5714C47 18.1512 45.8487 17 44.4286 17ZM25.9611 27.7558C25.5564 27.38 25.533 26.7473 25.9088 26.3425L29.7985 22.1536C29.9877 21.9499 30.2532 21.8341 30.5313 21.8341C30.8093 21.8341 31.0748 21.9499 31.2641 22.1536L35.1538 26.3425C35.5296 26.7473 35.5061 27.38 35.1014 27.7558C34.6967 28.1316 34.064 28.1082 33.6882 27.7035L31.6538 25.5126V32.4259C31.6538 32.9782 31.2061 33.4259 30.6538 33.4259C30.1015 33.4259 29.6538 32.9782 29.6538 32.4259V25.2487L27.3743 27.7035C26.9985 28.1082 26.3658 28.1316 25.9611 27.7558Z" fill="#DB504A"/>
<path d="M34.3759 42.6641C34.3759 42.5562 34.3218 42.4483 34.2136 42.3404L32.3743 39.2119L27.6677 39.2119L25.8284 42.3944C25.5038 42.9877 25.6661 43.6889 26.2612 44.0665C26.4235 44.1744 26.6399 44.2283 26.8563 44.2283L33.2399 44.2283C33.9973 44.1744 34.5923 43.4732 34.3759 42.6641Z" fill="#DB504A"/>
</svg>
