<svg width="61" height="61" viewBox="0 0 61 61" fill="none" xmlns="http://www.w3.org/2000/svg">
<path fill-rule="evenodd" clip-rule="evenodd" d="M34.3845 31.0689C35.7687 30.2291 36.84 28.9596 37.4351 27.454C38.0302 25.9484 38.1164 24.2894 37.6804 22.7302C37.2444 21.1711 36.3103 19.7974 35.0205 18.8188C33.7308 17.8403 32.1563 17.3105 30.5373 17.3105C28.9184 17.3105 27.3439 17.8403 26.0542 18.8188C24.7644 19.7974 23.8303 21.1711 23.3943 22.7302C22.9583 24.2894 23.0445 25.9484 23.6396 27.454C24.2347 28.9596 25.306 30.2291 26.6902 31.0689C24.2202 31.8279 22.0273 33.2952 20.3835 35.289C18.7397 37.2827 17.7173 39.7151 17.4431 42.2846C17.4295 42.4642 17.4537 42.6447 17.5141 42.8145C17.5746 42.9842 17.6699 43.1394 17.794 43.27C17.9181 43.4006 18.0682 43.5038 18.2346 43.5729C18.401 43.6419 18.5801 43.6753 18.7602 43.6709H42.3006C42.4808 43.6753 42.6598 43.6419 42.8262 43.5729C42.9926 43.5038 43.1427 43.4006 43.2668 43.27C43.3909 43.1394 43.4862 42.9842 43.5467 42.8145C43.6071 42.6447 43.6313 42.4642 43.6177 42.2846C43.3481 39.7157 42.329 37.2828 40.6873 35.2886C39.0456 33.2944 36.8538 31.827 34.3845 31.0689V31.0689Z" fill="white"/>
<path d="M34.3845 31.0688L33.9824 30.5004C33.8715 30.5734 33.7834 30.6762 33.7282 30.797C33.673 30.9177 33.653 31.0516 33.6703 31.1833C33.6877 31.3149 33.7418 31.439 33.8264 31.5414C33.911 31.6437 34.0227 31.7202 34.1488 31.7619L34.3845 31.0688ZM26.6901 31.0688L26.8981 31.7342C27.0259 31.6932 27.1394 31.6167 27.2253 31.5136C27.3112 31.4105 27.366 31.285 27.3833 31.1519C27.391 31.0235 27.3643 30.8954 27.3058 30.7808C27.2472 30.6662 27.1591 30.5694 27.0506 30.5004L26.6901 31.0688ZM17.4431 42.2844L18.1363 42.3538L17.4431 42.2844ZM43.6454 42.2844L44.3247 42.2151L43.6454 42.2844ZM37.2542 24.7331C37.2565 25.8957 36.956 27.0389 36.3823 28.0501C35.8086 29.0614 34.9815 29.9058 33.9824 30.5004L34.7033 31.6926C35.8941 30.9699 36.8783 29.9522 37.5607 28.7379C38.2432 27.5236 38.6008 26.1537 38.599 24.7608L37.2542 24.7331ZM30.5442 18.0231C32.3238 18.0231 34.0305 18.73 35.2889 19.9884C36.5473 21.2468 37.2542 22.9535 37.2542 24.7331H38.6406C38.6369 22.5869 37.7827 20.5297 36.2652 19.0121C34.7476 17.4946 32.6904 16.6404 30.5442 16.6367V18.0231ZM23.8204 24.7331C23.824 22.9522 24.5341 21.2455 25.7946 19.9876C27.0552 18.7296 28.7633 18.0231 30.5442 18.0231V16.6367C28.3957 16.6367 26.3349 17.4893 24.8143 19.0072C23.2938 20.5252 22.4377 22.5845 22.434 24.7331H23.8204ZM27.0506 30.5004C26.0611 29.8986 25.2438 29.0515 24.6778 28.0411C24.1119 27.0307 23.8165 25.8912 23.8204 24.7331H22.434C22.4349 26.1255 22.7936 27.4943 23.4758 28.7082C24.158 29.922 25.1407 30.9402 26.3297 31.6649L27.0506 30.5004ZM26.496 30.431C23.8987 31.2318 21.594 32.7784 19.8686 34.8785C18.1432 36.9786 17.0731 39.5395 16.7915 42.2429L18.1779 42.3815C18.4355 39.947 19.4036 37.6422 20.9615 35.7539C22.5195 33.8656 24.5985 32.4773 26.9397 31.7619L26.496 30.431ZM16.7915 42.2429C16.7726 42.5112 16.8086 42.7805 16.8971 43.0345C16.9857 43.2884 17.125 43.5217 17.3065 43.7202C17.4881 43.9186 17.7081 44.078 17.9533 44.1887C18.1984 44.2994 18.4635 44.359 18.7324 44.364V42.9776C18.6489 42.9838 18.565 42.972 18.4865 42.9428C18.408 42.9137 18.3367 42.8679 18.2775 42.8087C18.2183 42.7495 18.1725 42.6782 18.1434 42.5997C18.1142 42.5212 18.1023 42.4373 18.1085 42.3538L16.7915 42.2429ZM18.7324 44.364H42.3006V42.9776H18.7324V44.364ZM42.3006 44.364C42.5773 44.3691 42.852 44.3157 43.1067 44.2074C43.3615 44.0992 43.5905 43.9384 43.7789 43.7356C43.9673 43.5328 44.1108 43.2926 44.2001 43.0306C44.2893 42.7686 44.3223 42.4907 44.297 42.2151L42.9106 42.3538C42.9144 42.4355 42.9014 42.5172 42.8723 42.5937C42.8431 42.6702 42.7986 42.7399 42.7413 42.7984C42.6841 42.857 42.6155 42.9031 42.5396 42.9339C42.4638 42.9647 42.3824 42.9796 42.3006 42.9776V44.364ZM44.297 42.2151C44.0153 39.5118 42.9453 36.9508 41.2199 34.8507C39.4944 32.7507 37.1898 31.2041 34.5924 30.4033L34.1904 31.7897C36.5315 32.5051 38.6106 33.8933 40.1685 35.7816C41.7265 37.6699 42.6946 39.9748 42.9522 42.4092L44.297 42.2151Z" fill="white"/>
<path fill-rule="evenodd" clip-rule="evenodd" d="M48.5097 36.2355C48.5342 36.3869 48.5254 36.5421 48.484 36.6896C48.4425 36.8371 48.3695 36.9733 48.2702 37.088C48.1709 37.2027 48.0479 37.293 47.9102 37.3525C47.7726 37.4119 47.6237 37.4389 47.4746 37.4315H43.9852C43.2348 35.5587 42.0342 33.9125 40.4959 32.6474C40.8608 32.4199 41.2514 32.2391 41.659 32.1091C41.095 31.7568 40.6586 31.2244 40.4163 30.5932C40.174 29.962 40.1391 29.2666 40.3171 28.6131C40.495 27.9596 40.8759 27.384 41.4017 26.9739C41.9274 26.5638 42.5693 26.3418 43.2292 26.3418C43.8891 26.3418 44.5309 26.5638 45.0567 26.9739C45.5825 27.384 45.9634 27.9596 46.1413 28.6131C46.3192 29.2666 46.2844 29.962 46.0421 30.5932C45.7998 31.2244 45.3634 31.7568 44.7994 32.1091C45.7196 32.3939 46.549 32.9268 47.2014 33.6523C47.8538 34.3779 48.3056 35.2698 48.5097 36.2355V36.2355Z" fill="white"/>
<path fill-rule="evenodd" clip-rule="evenodd" d="M12.4911 36.2347C12.4666 36.3862 12.4754 36.5415 12.5169 36.6891C12.5584 36.8368 12.6316 36.9729 12.731 37.0877C12.8304 37.2025 12.9535 37.2929 13.0914 37.3524C13.2293 37.4119 13.3784 37.4389 13.5277 37.4315H17.022C17.7734 35.5574 18.9758 33.9102 20.5162 32.6442C20.1508 32.4165 19.7597 32.2357 19.3515 32.1056C19.8023 31.8213 20.1727 31.4207 20.426 30.9435C20.6793 30.4664 20.8065 29.9294 20.795 29.3861C20.7835 28.8427 20.6338 28.3119 20.3606 27.8465C20.0874 27.3811 19.7004 26.9973 19.2381 26.7334C18.7757 26.4694 18.2541 26.3345 17.7253 26.3421C17.1964 26.3497 16.6787 26.4994 16.2236 26.7765C15.7686 27.0535 15.3921 27.4482 15.1316 27.9212C14.8712 28.3942 14.7358 28.9291 14.7391 29.4726C14.7419 30.0077 14.877 30.5334 15.1317 31.0002C15.3863 31.467 15.7522 31.8598 16.195 32.1415C15.28 32.4253 14.4549 32.9539 13.804 33.6731C13.1532 34.3923 12.7001 35.2764 12.4911 36.2347Z" fill="white"/>
</svg>
