<svg width="100" height="100" viewBox="0 0 100 100" fill="none" xmlns="http://www.w3.org/2000/svg">
<path d="M75.0019 75.0019C88.808 75.0019 100 63.8099 100 50.0039C100 36.1979 88.808 25.0059 75.0019 25.0059C61.1959 25.0059 50.0039 36.1979 50.0039 50.0039C50.0039 63.8099 61.1959 75.0019 75.0019 75.0019Z" fill="#08CAFB"/>
<path d="M24.998 75.0019C38.8041 75.0019 49.9961 63.8099 49.9961 50.0039C49.9961 36.1979 38.8041 25.0059 24.998 25.0059C11.192 25.0059 0 36.1979 0 50.0039C0 63.8099 11.192 75.0019 24.998 75.0019Z" fill="#E0CC17"/>
<path d="M50.0039 49.9961C63.8099 49.9961 75.0019 38.8041 75.0019 24.998C75.0019 11.192 63.8099 0 50.0039 0C36.1979 0 25.0059 11.192 25.0059 24.998C25.0059 38.8041 36.1979 49.9961 50.0039 49.9961Z" fill="#67C785"/>
<path d="M50.0039 100C63.8099 100 75.0019 88.808 75.0019 75.0019C75.0019 61.1959 63.8099 50.0039 50.0039 50.0039C36.1979 50.0039 25.0059 61.1959 25.0059 75.0019C25.0059 88.808 36.1979 100 50.0039 100Z" fill="#F36F86"/>
<path d="M11.7648 49.9942C11.766 41.6957 14.467 33.6229 19.4601 26.9946C24.4531 20.3663 31.467 15.5423 39.4429 13.251C47.4188 10.9597 55.9236 11.3255 63.6734 14.2931C71.4231 17.2607 77.9969 22.6691 82.4024 29.7016C86.8079 36.7342 88.8059 45.0091 88.0946 53.277C87.3834 61.545 84.0015 69.3571 78.4597 75.5339C72.9179 81.7107 65.5169 85.9169 57.3742 87.5174C49.2315 89.1178 40.7892 88.0257 33.3218 84.4059H18.0277C17.3834 84.4039 16.766 84.1471 16.3104 83.6915C15.8548 83.2359 15.598 82.6185 15.5959 81.9742V66.6801C13.0688 61.4811 11.7586 55.7749 11.7648 49.9942Z" fill="#131940"/>
<path d="M57.1725 40.0893C56.5173 39.2617 55.6208 38.6582 54.4828 38.2789C53.3794 37.8651 52.3277 37.6582 51.3277 37.6582C50.7414 37.6582 50.138 37.7272 49.5173 37.8651C48.8966 38.0031 48.3104 38.2272 47.7587 38.5376C47.207 38.8134 46.7587 39.1927 46.4139 39.6755C46.069 40.1582 45.8966 40.7445 45.8966 41.4341C45.8966 42.5376 46.3104 43.3824 47.138 43.9686C47.9656 44.5548 49.0001 45.0548 50.2414 45.4686C51.5173 45.8824 52.8794 46.2962 54.3277 46.71C55.7759 47.1238 57.1208 47.71 58.3621 48.4686C59.638 49.2272 60.6897 50.2445 61.5173 51.5203C62.3449 52.7962 62.7587 54.5031 62.7587 56.641C62.7587 58.6755 62.3794 60.4514 61.6208 61.9686C60.8621 63.4859 59.8277 64.7445 58.5173 65.7445C57.2415 66.7445 55.7414 67.4859 54.0173 67.9686C52.3277 68.4514 50.5345 68.6928 48.638 68.6928C46.2587 68.6928 44.0518 68.3307 42.0173 67.6066C39.9828 66.8824 38.0863 65.71 36.3276 64.0893L42.069 57.779C42.8966 58.8824 43.9311 59.7445 45.1725 60.3652C46.4483 60.9514 47.7587 61.2445 49.1035 61.2445C49.7587 61.2445 50.4139 61.1755 51.069 61.0376C51.7587 60.8652 52.3621 60.6238 52.8794 60.3134C53.4311 60.0031 53.8621 59.6065 54.1725 59.1238C54.5173 58.641 54.6897 58.0721 54.6897 57.4169C54.6897 56.3134 54.2587 55.4514 53.3966 54.8307C52.569 54.1755 51.5173 53.6238 50.2414 53.1755C48.9656 52.7272 47.5863 52.2789 46.1035 51.8307C44.6207 51.3824 43.2414 50.7789 41.9656 50.0203C40.6897 49.2617 39.6207 48.2617 38.7587 47.0203C37.9311 45.7789 37.5173 44.141 37.5173 42.1065C37.5173 40.141 37.8966 38.4169 38.6552 36.9341C39.4483 35.4513 40.4828 34.21 41.7587 33.21C43.069 32.21 44.569 31.4686 46.2587 30.9858C47.9483 30.4686 49.6897 30.21 51.4828 30.21C53.5518 30.21 55.5518 30.5031 57.4828 31.0893C59.4139 31.6755 61.1552 32.6582 62.707 34.0376L57.1725 40.0893Z" fill="white"/>
<path d="M75.0019 75.0019C88.808 75.0019 100 63.8099 100 50.0039C100 36.1979 88.808 25.0059 75.0019 25.0059C61.1959 25.0059 50.0039 36.1979 50.0039 50.0039C50.0039 63.8099 61.1959 75.0019 75.0019 75.0019Z" fill="#4696F0"/>
<path d="M24.998 75.0019C38.8041 75.0019 49.9961 63.8099 49.9961 50.0039C49.9961 36.1979 38.8041 25.0059 24.998 25.0059C11.192 25.0059 0 36.1979 0 50.0039C0 63.8099 11.192 75.0019 24.998 75.0019Z" fill="#4696F0"/>
<path d="M50.0039 49.9961C63.8099 49.9961 75.0019 38.8041 75.0019 24.998C75.0019 11.192 63.8099 0 50.0039 0C36.1979 0 25.0059 11.192 25.0059 24.998C25.0059 38.8041 36.1979 49.9961 50.0039 49.9961Z" fill="#F3B74C"/>
<path d="M50.0039 100C63.8099 100 75.0019 88.808 75.0019 75.0019C75.0019 61.1959 63.8099 50.0039 50.0039 50.0039C36.1979 50.0039 25.0059 61.1959 25.0059 75.0019C25.0059 88.808 36.1979 100 50.0039 100Z" fill="#F3B74C"/>
<path d="M11.7648 49.9942C11.766 41.6957 14.467 33.6229 19.4601 26.9946C24.4531 20.3663 31.467 15.5423 39.4429 13.251C47.4188 10.9597 55.9236 11.3255 63.6734 14.2931C71.4231 17.2607 77.9969 22.6691 82.4024 29.7016C86.8079 36.7342 88.8059 45.0091 88.0946 53.277C87.3834 61.545 84.0015 69.3571 78.4597 75.5339C72.9179 81.7107 65.5169 85.9169 57.3742 87.5174C49.2315 89.1178 40.7892 88.0257 33.3218 84.4059H18.0277C17.3834 84.4039 16.766 84.1471 16.3104 83.6915C15.8548 83.2359 15.598 82.6185 15.5959 81.9742V66.6801C13.0688 61.4811 11.7586 55.7749 11.7648 49.9942Z" fill="#131940"/>
<path d="M57.1725 40.0893C56.5173 39.2617 55.6208 38.6582 54.4828 38.2789C53.3794 37.8651 52.3277 37.6582 51.3277 37.6582C50.7414 37.6582 50.138 37.7272 49.5173 37.8651C48.8966 38.0031 48.3104 38.2272 47.7587 38.5376C47.207 38.8134 46.7587 39.1927 46.4139 39.6755C46.069 40.1582 45.8966 40.7445 45.8966 41.4341C45.8966 42.5376 46.3104 43.3824 47.138 43.9686C47.9656 44.5548 49.0001 45.0548 50.2414 45.4686C51.5173 45.8824 52.8794 46.2962 54.3277 46.71C55.7759 47.1238 57.1208 47.71 58.3621 48.4686C59.638 49.2272 60.6897 50.2445 61.5173 51.5203C62.3449 52.7962 62.7587 54.5031 62.7587 56.641C62.7587 58.6755 62.3794 60.4514 61.6208 61.9686C60.8621 63.4859 59.8277 64.7445 58.5173 65.7445C57.2415 66.7445 55.7414 67.4859 54.0173 67.9686C52.3277 68.4514 50.5345 68.6928 48.638 68.6928C46.2587 68.6928 44.0518 68.3307 42.0173 67.6066C39.9828 66.8824 38.0863 65.71 36.3276 64.0893L42.069 57.779C42.8966 58.8824 43.9311 59.7445 45.1725 60.3652C46.4483 60.9514 47.7587 61.2445 49.1035 61.2445C49.7587 61.2445 50.4139 61.1755 51.069 61.0376C51.7587 60.8652 52.3621 60.6238 52.8794 60.3134C53.4311 60.0031 53.8621 59.6065 54.1725 59.1238C54.5173 58.641 54.6897 58.0721 54.6897 57.4169C54.6897 56.3134 54.2587 55.4514 53.3966 54.8307C52.569 54.1755 51.5173 53.6238 50.2414 53.1755C48.9656 52.7272 47.5863 52.2789 46.1035 51.8307C44.6207 51.3824 43.2414 50.7789 41.9656 50.0203C40.6897 49.2617 39.6207 48.2617 38.7587 47.0203C37.9311 45.7789 37.5173 44.141 37.5173 42.1065C37.5173 40.141 37.8966 38.4169 38.6552 36.9341C39.4483 35.4513 40.4828 34.21 41.7587 33.21C43.069 32.21 44.569 31.4686 46.2587 30.9858C47.9483 30.4686 49.6897 30.21 51.4828 30.21C53.5518 30.21 55.5518 30.5031 57.4828 31.0893C59.4139 31.6755 61.1552 32.6582 62.707 34.0376L57.1725 40.0893Z" fill="white"/>
</svg>
