<svg width="100" height="100" viewBox="0 0 100 100" fill="none" xmlns="http://www.w3.org/2000/svg">
<circle cx="50" cy="50" r="50" fill="#E6F4FF"/>
<path fill-rule="evenodd" clip-rule="evenodd" d="M63.3335 38.3333H58.0502L55.0002 35H45.0002L41.9502 38.3333H36.6668C34.8335 38.3333 33.3335 39.8333 33.3335 41.6667V61.6667C33.3335 63.5 34.8335 65 36.6668 65H63.3335C65.1668 65 66.6668 63.5 66.6668 61.6667V41.6667C66.6668 39.8333 65.1668 38.3333 63.3335 38.3333ZM43.3335 51.6667C43.3335 47.9833 46.3168 45 50.0002 45C53.6835 45 56.6668 47.9833 56.6668 51.6667C56.6668 55.35 53.6835 58.3333 50.0002 58.3333C46.3168 58.3333 43.3335 55.35 43.3335 51.6667Z" fill="#4696F0"/>
</svg>
