<svg width="116" height="116" viewBox="0 0 116 116" fill="none" xmlns="http://www.w3.org/2000/svg">
<path d="M87.0022 87.0021C103.017 87.0021 116 74.0194 116 58.0045C116 41.9895 103.017 29.0068 87.0022 29.0068C70.9872 29.0068 58.0045 41.9895 58.0045 58.0045C58.0045 74.0194 70.9872 87.0021 87.0022 87.0021Z" fill="#08CAFB"/>
<path d="M28.9977 87.0021C45.0127 87.0021 57.9954 74.0194 57.9954 58.0045C57.9954 41.9895 45.0127 29.0068 28.9977 29.0068C12.9827 29.0068 0 41.9895 0 58.0045C0 74.0194 12.9827 87.0021 28.9977 87.0021Z" fill="#E0CC17"/>
<path d="M58.0044 57.9954C74.0194 57.9954 87.0021 45.0127 87.0021 28.9977C87.0021 12.9827 74.0194 0 58.0044 0C41.9894 0 29.0067 12.9827 29.0067 28.9977C29.0067 45.0127 41.9894 57.9954 58.0044 57.9954Z" fill="#67C785"/>
<path d="M58.0044 116C74.0194 116 87.0021 103.017 87.0021 87.0022C87.0021 70.9872 74.0194 58.0045 58.0044 58.0045C41.9894 58.0045 29.0067 70.9872 29.0067 87.0022C29.0067 103.017 41.9894 116 58.0044 116Z" fill="#F36F86"/>
<path d="M13.647 57.9932C13.6484 48.367 16.7816 39.0026 22.5735 31.3137C28.3655 23.6249 36.5016 18.0291 45.7536 15.3712C55.0057 12.7133 64.8713 13.1376 73.8609 16.5801C82.8506 20.0225 90.4762 26.2962 95.5866 34.4539C100.697 42.6116 103.015 52.2105 102.19 61.8013C101.364 71.3922 97.4416 80.4542 91.013 87.6193C84.5845 94.7844 75.9994 99.6635 66.5539 101.52C57.1084 103.377 47.3153 102.11 38.6532 97.9108H20.912C20.1646 97.9085 19.4484 97.6105 18.9199 97.082C18.3914 96.5535 18.0935 95.8374 18.0912 95.09V77.3488C15.1597 71.318 13.6398 64.6988 13.647 57.9932Z" fill="#131940"/>
<path d="M66.32 46.5039C65.56 45.5439 64.52 44.8439 63.2 44.4039C61.92 43.9239 60.7 43.6839 59.54 43.6839C58.86 43.6839 58.16 43.7639 57.44 43.9239C56.72 44.0839 56.04 44.3439 55.4 44.7039C54.76 45.0239 54.24 45.4639 53.84 46.0239C53.44 46.5839 53.24 47.2639 53.24 48.0639C53.24 49.3439 53.72 50.3239 54.68 51.0039C55.64 51.6839 56.84 52.2639 58.28 52.7439C59.76 53.2239 61.34 53.7039 63.02 54.1839C64.7 54.6639 66.26 55.3439 67.7 56.2239C69.18 57.1039 70.4 58.2839 71.36 59.7639C72.32 61.2439 72.8 63.2239 72.8 65.7039C72.8 68.0639 72.36 70.1239 71.48 71.8839C70.6 73.6439 69.4 75.1039 67.88 76.2639C66.4 77.4239 64.66 78.2839 62.66 78.8439C60.7 79.4039 58.62 79.6839 56.42 79.6839C53.66 79.6839 51.1 79.2639 48.74 78.4239C46.38 77.5839 44.18 76.2239 42.14 74.3439L48.8 67.0239C49.76 68.3039 50.96 69.3039 52.4 70.0239C53.88 70.7039 55.4 71.0439 56.96 71.0439C57.72 71.0439 58.48 70.9639 59.24 70.8039C60.04 70.6039 60.74 70.3239 61.34 69.9639C61.98 69.6039 62.48 69.1439 62.84 68.5839C63.24 68.0239 63.44 67.3639 63.44 66.6039C63.44 65.3239 62.94 64.3239 61.94 63.6039C60.98 62.8439 59.76 62.2039 58.28 61.6839C56.8 61.1639 55.2 60.6439 53.48 60.1239C51.76 59.6039 50.16 58.9039 48.68 58.0239C47.2 57.1439 45.96 55.9839 44.96 54.5439C44 53.1039 43.52 51.2039 43.52 48.8439C43.52 46.5639 43.96 44.5639 44.84 42.8439C45.76 41.1239 46.96 39.6839 48.44 38.5239C49.96 37.3639 51.7 36.5039 53.66 35.9439C55.62 35.3439 57.64 35.0439 59.72 35.0439C62.12 35.0439 64.44 35.3839 66.68 36.0639C68.92 36.7439 70.94 37.8839 72.74 39.4839L66.32 46.5039Z" fill="white"/>
<path d="M87.0022 87.0021C103.017 87.0021 116 74.0194 116 58.0045C116 41.9895 103.017 29.0068 87.0022 29.0068C70.9872 29.0068 58.0045 41.9895 58.0045 58.0045C58.0045 74.0194 70.9872 87.0021 87.0022 87.0021Z" fill="#4696F0"/>
<path d="M28.9977 87.0021C45.0127 87.0021 57.9954 74.0194 57.9954 58.0045C57.9954 41.9895 45.0127 29.0068 28.9977 29.0068C12.9827 29.0068 0 41.9895 0 58.0045C0 74.0194 12.9827 87.0021 28.9977 87.0021Z" fill="#4696F0"/>
<path d="M58.0044 57.9954C74.0194 57.9954 87.0021 45.0127 87.0021 28.9977C87.0021 12.9827 74.0194 0 58.0044 0C41.9894 0 29.0067 12.9827 29.0067 28.9977C29.0067 45.0127 41.9894 57.9954 58.0044 57.9954Z" fill="#F3B74C"/>
<path d="M58.0044 116C74.0194 116 87.0021 103.017 87.0021 87.0022C87.0021 70.9872 74.0194 58.0045 58.0044 58.0045C41.9894 58.0045 29.0067 70.9872 29.0067 87.0022C29.0067 103.017 41.9894 116 58.0044 116Z" fill="#F3B74C"/>
<path d="M13.647 57.9932C13.6484 48.367 16.7816 39.0026 22.5735 31.3137C28.3655 23.6249 36.5016 18.0291 45.7536 15.3712C55.0057 12.7133 64.8713 13.1376 73.8609 16.5801C82.8506 20.0225 90.4762 26.2962 95.5866 34.4539C100.697 42.6116 103.015 52.2105 102.19 61.8013C101.364 71.3922 97.4416 80.4542 91.013 87.6193C84.5845 94.7844 75.9994 99.6635 66.5539 101.52C57.1084 103.377 47.3153 102.11 38.6532 97.9108H20.912C20.1646 97.9085 19.4484 97.6105 18.9199 97.082C18.3914 96.5535 18.0935 95.8374 18.0912 95.09V77.3488C15.1597 71.318 13.6398 64.6988 13.647 57.9932Z" fill="#131940"/>
<path d="M66.32 46.5039C65.56 45.5439 64.52 44.8439 63.2 44.4039C61.92 43.9239 60.7 43.6839 59.54 43.6839C58.86 43.6839 58.16 43.7639 57.44 43.9239C56.72 44.0839 56.04 44.3439 55.4 44.7039C54.76 45.0239 54.24 45.4639 53.84 46.0239C53.44 46.5839 53.24 47.2639 53.24 48.0639C53.24 49.3439 53.72 50.3239 54.68 51.0039C55.64 51.6839 56.84 52.2639 58.28 52.7439C59.76 53.2239 61.34 53.7039 63.02 54.1839C64.7 54.6639 66.26 55.3439 67.7 56.2239C69.18 57.1039 70.4 58.2839 71.36 59.7639C72.32 61.2439 72.8 63.2239 72.8 65.7039C72.8 68.0639 72.36 70.1239 71.48 71.8839C70.6 73.6439 69.4 75.1039 67.88 76.2639C66.4 77.4239 64.66 78.2839 62.66 78.8439C60.7 79.4039 58.62 79.6839 56.42 79.6839C53.66 79.6839 51.1 79.2639 48.74 78.4239C46.38 77.5839 44.18 76.2239 42.14 74.3439L48.8 67.0239C49.76 68.3039 50.96 69.3039 52.4 70.0239C53.88 70.7039 55.4 71.0439 56.96 71.0439C57.72 71.0439 58.48 70.9639 59.24 70.8039C60.04 70.6039 60.74 70.3239 61.34 69.9639C61.98 69.6039 62.48 69.1439 62.84 68.5839C63.24 68.0239 63.44 67.3639 63.44 66.6039C63.44 65.3239 62.94 64.3239 61.94 63.6039C60.98 62.8439 59.76 62.2039 58.28 61.6839C56.8 61.1639 55.2 60.6439 53.48 60.1239C51.76 59.6039 50.16 58.9039 48.68 58.0239C47.2 57.1439 45.96 55.9839 44.96 54.5439C44 53.1039 43.52 51.2039 43.52 48.8439C43.52 46.5639 43.96 44.5639 44.84 42.8439C45.76 41.1239 46.96 39.6839 48.44 38.5239C49.96 37.3639 51.7 36.5039 53.66 35.9439C55.62 35.3439 57.64 35.0439 59.72 35.0439C62.12 35.0439 64.44 35.3839 66.68 36.0639C68.92 36.7439 70.94 37.8839 72.74 39.4839L66.32 46.5039Z" fill="white"/>
</svg>
