<svg width="101" height="101" viewBox="0 0 101 101" fill="none" xmlns="http://www.w3.org/2000/svg">
<g clip-path="url(#clip0_1786_3934)">
<path d="M100.5 0.25H0.5V100.25H100.5V0.25Z" fill="#E6F4FF"/>
<path d="M80.0031 71.9416C76.2799 68.9153 71.5437 67.3896 66.7569 67.3896H34.7685C29.9563 67.3896 25.2201 68.9153 21.4969 71.9416C19.1489 73.8272 17.2572 76.207 15.9601 78.9072C14.663 81.6074 13.9934 84.5597 14 87.5483V99.6535H87.5V87.5483C87.5066 84.5597 86.837 81.6074 85.5399 78.9072C84.2428 76.207 82.3511 73.8272 80.0031 71.9416Z" fill="#4696F0"/>
<path d="M48.5164 59.2114C51.5535 59.5353 54.6254 59.1829 57.5064 58.1801C60.3874 57.1773 63.0041 55.5495 65.1641 53.4165C67.3241 51.2834 68.9725 48.6994 69.9881 45.8545C71.0036 43.0095 71.3605 39.9759 71.0324 36.9768C70.0446 27.6228 62.4211 20.1196 52.9487 19.1192C47.5648 18.5388 42.168 20.0941 37.9454 23.4431C33.7229 26.792 31.0204 31.6603 30.4327 36.9768C29.8449 42.2934 31.42 47.6228 34.8113 51.7926C38.2027 55.9623 43.1325 58.631 48.5164 59.2114Z" fill="#4696F0"/>
</g>
<defs>
<clipPath id="clip0_1786_3934">
<rect x="0.5" y="0.25" width="100" height="100" rx="50" fill="white"/>
</clipPath>
</defs>
</svg>
