<svg width="14" height="12" viewBox="0 0 14 12" fill="none" xmlns="http://www.w3.org/2000/svg">
<path d="M13.1733 9.99849L8.15333 1.32516C7.64 0.43849 6.36 0.43849 5.84667 1.32516L0.826666 9.99849C0.313333 10.8852 0.953333 11.9985 1.98 11.9985H12.02C13.0467 11.9985 13.6867 10.8852 13.1733 9.99849ZM1.98 10.6652L7 1.99182L12.02 10.6652H1.98Z" fill="#FF4133"/>
<path d="M6.33333 5.33182V6.66516C6.33333 7.03182 6.63333 7.33182 7 7.33182C7.36667 7.33182 7.66667 7.03182 7.66667 6.66516V5.33182C7.66667 4.96516 7.36667 4.66516 7 4.66516C6.63333 4.66516 6.33333 4.96516 6.33333 5.33182Z" fill="#FF4133"/>
<path d="M7 9.99849C7.36819 9.99849 7.66667 9.70001 7.66667 9.33182C7.66667 8.96363 7.36819 8.66516 7 8.66516C6.63181 8.66516 6.33333 8.96363 6.33333 9.33182C6.33333 9.70001 6.63181 9.99849 7 9.99849Z" fill="#FF4133"/>
</svg>
