<svg width="28" height="28" fill="#4696F0" viewBox="0 0 28 28"  xmlns="http://www.w3.org/2000/svg">
<path d="M8.20588 10.5588H17.6176V8.20588H8.20588V10.5588ZM8.20588 15.2647H14.0882V12.9118H8.20588V15.2647ZM19.9706 23.5V19.9706H16.4412V17.6176H19.9706V14.0882H22.3235V17.6176H25.8529V19.9706H22.3235V23.5H19.9706ZM3.5 23.5V5.85294C3.5 5.20588 3.73039 4.65196 4.19118 4.19118C4.65196 3.73039 5.20588 3.5 5.85294 3.5H19.9706C20.6176 3.5 21.1716 3.73039 21.6324 4.19118C22.0931 4.65196 22.3235 5.20588 22.3235 5.85294V11.8235C22.1274 11.7843 21.9314 11.7598 21.7353 11.75C21.5392 11.7402 21.3431 11.7353 21.1471 11.7353C19.1667 11.7353 17.4951 12.4216 16.1324 13.7941C14.7696 15.1667 14.0882 16.8333 14.0882 18.7941C14.0882 18.9902 14.0931 19.1863 14.1029 19.3824C14.1127 19.5784 14.1373 19.7745 14.1765 19.9706H7.02941L3.5 23.5Z" />
</svg>
