<svg width="14" height="14" viewBox="0 0 14 14" fill="none" xmlns="http://www.w3.org/2000/svg">
<path fill-rule="evenodd" clip-rule="evenodd" d="M6.9935 0.333008C3.3135 0.333008 0.333496 3.31967 0.333496 6.99967C0.333496 10.6797 3.3135 13.6663 6.9935 13.6663C10.6802 13.6663 13.6668 10.6797 13.6668 6.99967C13.6668 3.31967 10.6802 0.333008 6.9935 0.333008ZM7.00016 12.333C4.0535 12.333 1.66683 9.94634 1.66683 6.99967C1.66683 4.05301 4.0535 1.66634 7.00016 1.66634C9.94683 1.66634 12.3335 4.05301 12.3335 6.99967C12.3335 9.94634 9.94683 12.333 7.00016 12.333ZM6.3335 7.71301L9.9935 9.90634L10.6735 8.75968L7.66683 6.95301V3.27967H6.3335V7.71301Z" fill="#5F6368"/>
</svg>
