<?xml version="1.0" standalone="no"?>
<!DOCTYPE svg PUBLIC "-//W3C//DTD SVG 20010904//EN"
 "http://www.w3.org/TR/2001/REC-SVG-20010904/DTD/svg10.dtd">
<svg version="1.0" xmlns="http://www.w3.org/2000/svg"
 width="700.000000pt" height="700.000000pt" viewBox="0 0 700.000000 700.000000"
 preserveAspectRatio="xMidYMid meet">
<metadata>
Created by potrace 1.14, written by Peter Selinger 2001-2017
</metadata>
<g transform="translate(0.000000,700.000000) scale(0.100000,-0.100000)"
fill="#000000" stroke="none">
<path d="M3257 6985 c-441 -64 -833 -287 -1119 -635 -43 -53 -120 -163 -144
-205 -95 -171 -176 -376 -206 -524 l-13 -63 -167 -168 c-145 -145 -173 -168
-206 -173 -161 -26 -462 -147 -579 -234 -17 -12 -35 -23 -38 -23 -14 0 -165
-120 -239 -190 -247 -235 -415 -525 -495 -852 -41 -166 -42 -177 -46 -378 -4
-198 4 -289 40 -440 124 -516 464 -941 937 -1172 l108 -53 0 -323 c0 -351 2
-363 56 -414 16 -15 42 -32 57 -37 18 -7 147 -11 350 -11 l322 0 49 -101 c232
-479 671 -828 1191 -947 133 -30 154 -33 345 -37 197 -5 299 5 460 45 320 81
576 226 811 459 243 241 395 511 472 836 l24 100 168 168 c92 92 175 167 185
167 9 0 52 9 96 20 372 96 695 304 939 605 205 253 328 545 371 878 19 153 15
378 -10 517 -121 676 -621 1220 -1282 1394 -55 14 -108 26 -117 26 -21 0 -357
338 -357 359 0 63 -77 293 -146 437 -248 517 -748 882 -1323 967 -116 17 -379
18 -494 2z"/>
</g>
</svg>
