<svg width="820" height="820" viewBox="0 0 820 820" fill="none" xmlns="http://www.w3.org/2000/svg">
<path d="M615.016 615.016C728.226 615.016 820 523.241 820 410.032C820 296.822 728.226 205.048 615.016 205.048C501.807 205.048 410.032 296.822 410.032 410.032C410.032 523.241 501.807 615.016 615.016 615.016Z" fill="#4696F0"/>
<path d="M204.984 615.016C318.193 615.016 409.968 523.241 409.968 410.032C409.968 296.822 318.193 205.048 204.984 205.048C91.7744 205.048 0 296.822 0 410.032C0 523.241 91.7744 615.016 204.984 615.016Z" fill="#4696F0"/>
<path d="M410.032 409.968C523.241 409.968 615.015 318.193 615.015 204.984C615.015 91.7744 523.241 0 410.032 0C296.822 0 205.048 91.7744 205.048 204.984C205.048 318.193 296.822 409.968 410.032 409.968Z" fill="#F3B74C"/>
<path d="M410.032 820C523.241 820 615.015 728.226 615.015 615.016C615.015 501.807 523.241 410.032 410.032 410.032C296.822 410.032 205.048 501.807 205.048 615.016C205.048 728.226 296.822 820 410.032 820Z" fill="#F3B74C"/>
<path d="M96.4703 409.953C96.4805 341.905 118.629 275.708 159.572 221.356C200.515 167.004 258.029 127.447 323.431 108.659C388.834 89.8702 458.573 92.8696 522.121 117.204C585.668 141.539 639.574 185.887 675.699 243.554C711.824 301.221 728.207 369.075 722.375 436.872C716.543 504.669 688.812 568.729 643.369 619.379C597.926 670.029 537.238 704.519 470.468 717.643C403.698 730.767 334.471 721.812 273.238 692.129H147.826C142.543 692.113 137.481 690.007 133.745 686.271C130.009 682.535 127.902 677.472 127.886 672.189V546.777C107.163 504.145 96.4197 457.354 96.4703 409.953Z" fill="#131940"/>
<path d="M468.814 328.735C463.442 321.949 456.09 317.001 446.759 313.89C437.711 310.497 429.087 308.801 420.887 308.801C416.08 308.801 411.131 309.366 406.042 310.497C400.952 311.628 396.145 313.466 391.621 316.011C387.097 318.273 383.421 321.383 380.593 325.342C377.766 329.301 376.352 334.107 376.352 339.763C376.352 348.811 379.745 355.739 386.531 360.545C393.318 365.352 401.8 369.452 411.98 372.845C422.442 376.239 433.611 379.632 445.487 383.025C457.363 386.418 468.39 391.225 478.569 397.445C489.032 403.666 497.656 412.008 504.442 422.47C511.228 432.932 514.621 446.928 514.621 464.459C514.621 481.142 511.511 495.704 505.29 508.146C499.069 520.587 490.587 530.908 479.842 539.108C469.38 547.308 457.08 553.387 442.942 557.346C429.087 561.304 414.383 563.284 398.831 563.284C379.321 563.284 361.224 560.315 344.542 554.377C327.859 548.439 312.307 538.825 297.886 525.535L344.966 473.79C351.752 482.839 360.235 489.908 370.414 494.997C380.876 499.804 391.621 502.208 402.649 502.208C408.021 502.208 413.394 501.642 418.766 500.511C424.421 499.097 429.369 497.118 433.611 494.573C438.135 492.028 441.669 488.777 444.214 484.818C447.042 480.859 448.456 476.194 448.456 470.821C448.456 461.773 444.921 454.704 437.852 449.615C431.066 444.242 422.442 439.718 411.98 436.042C401.518 432.366 390.207 428.69 378.049 425.014C365.89 421.339 354.58 416.39 344.118 410.17C333.655 403.949 324.89 395.749 317.821 385.57C311.035 375.39 307.642 361.959 307.642 345.276C307.642 329.159 310.752 315.021 316.973 302.863C323.476 290.704 331.959 280.525 342.421 272.325C353.166 264.125 365.466 258.045 379.321 254.087C393.176 249.845 407.456 247.725 422.159 247.725C439.125 247.725 455.525 250.128 471.359 254.935C487.194 259.742 501.473 267.8 514.197 279.111L468.814 328.735Z" fill="white"/>
</svg>

