<svg width="74" height="61" viewBox="0 0 74 61" fill="none" xmlns="http://www.w3.org/2000/svg">
<g clip-path="url(#clip0_220_421)">
<path d="M34.2434 20H18.6891C16.695 20 15 21.7 15 23.7V36.3C15 38.3 16.695 40 18.6891 40H34.2434C36.3372 40 37.9326 38.3 37.9326 36.3V23.7C37.9326 21.6 36.2375 20 34.2434 20Z" fill="white"/>
<path d="M46.2084 22.0997C46.009 22.0997 45.8096 22.1997 45.6101 22.3997L39.8271 25.7997V34.4997L45.7098 37.8997C46.8066 38.4997 48.1028 38.1997 48.8008 37.0997C49.0002 36.7997 49.0999 36.3997 49.0999 35.9997V24.1997C49.0002 22.7997 47.704 21.6997 46.2084 22.0997Z" fill="white"/>
</g>
</svg>
