<svg width="65" height="61" viewBox="0 0 65 61" fill="none" xmlns="http://www.w3.org/2000/svg">
<path d="M39.75 31.0976C39.75 30.5376 39.3199 30.1094 38.7574 30.1094C38.1949 30.1094 37.7647 30.5376 37.7647 31.0976C37.7647 34.9516 34.6213 38.0809 30.75 38.0809C26.8787 38.0809 23.7353 34.9516 23.7353 31.0976C23.7353 30.5376 23.3051 30.1094 22.7426 30.1094C22.1801 30.1094 21.75 30.5376 21.75 31.0976C21.75 35.6762 25.1912 39.5302 29.7574 40.0243V42.6595H26.1507C25.5882 42.6595 25.1581 43.0877 25.1581 43.6477C25.1581 44.2077 25.5882 44.6359 26.1507 44.6359H35.3493C35.9118 44.6359 36.3419 44.2077 36.3419 43.6477C36.3419 43.0877 35.9118 42.6595 35.3493 42.6595H31.7426V40.0243C36.3088 39.5302 39.75 35.6762 39.75 31.0976Z" fill="white"/>
<path d="M30.7503 16.6357C27.7062 16.6357 25.2246 19.1062 25.2246 22.1367V31.0635C25.2246 34.1269 27.7062 36.5644 30.7503 36.5974C33.7945 36.5974 36.2761 34.1269 36.2761 31.0964V22.1367C36.2761 19.1062 33.7945 16.6357 30.7503 16.6357Z" fill="white"/>
</svg>
